<mxfile host="app.diagrams.net" modified="2022-09-04T23:12:52.982Z" agent="5.0 (Windows NT 10.0; Win64; x64) AppleWebKit/537.36 (KHTML, like Gecko) Chrome/104.0.5112.102 Safari/537.36 OPR/90.0.4480.78" etag="saHzIT8cLGqM8rIJQAj6" version="20.2.8" type="github">
  <diagram id="YSU5gM_R33DTYE0j23kW" name="Page-1">
    <mxGraphModel dx="1381" dy="804" grid="1" gridSize="10" guides="1" tooltips="1" connect="1" arrows="1" fold="1" page="1" pageScale="1" pageWidth="850" pageHeight="1100" math="0" shadow="0">
      <root>
        <mxCell id="0" />
        <mxCell id="1" parent="0" />
        <mxCell id="3pxdmZEAAchQAIaSr5aw-1" value="&lt;b&gt;&lt;font style=&quot;font-size: 24px;&quot;&gt;X1&lt;/font&gt;&lt;/b&gt;" style="rounded=0;whiteSpace=wrap;html=1;" vertex="1" parent="1">
          <mxGeometry x="40" y="30" width="80" height="60" as="geometry" />
        </mxCell>
        <mxCell id="3pxdmZEAAchQAIaSr5aw-2" value="&lt;b&gt;&lt;font style=&quot;font-size: 24px;&quot;&gt;X2&lt;/font&gt;&lt;/b&gt;" style="rounded=0;whiteSpace=wrap;html=1;" vertex="1" parent="1">
          <mxGeometry x="200" y="30" width="80" height="60" as="geometry" />
        </mxCell>
        <mxCell id="3pxdmZEAAchQAIaSr5aw-3" value="&lt;b&gt;&lt;font style=&quot;font-size: 24px;&quot;&gt;X3&lt;/font&gt;&lt;/b&gt;" style="rounded=0;whiteSpace=wrap;html=1;" vertex="1" parent="1">
          <mxGeometry x="360" y="30" width="80" height="60" as="geometry" />
        </mxCell>
        <mxCell id="3pxdmZEAAchQAIaSr5aw-4" value="&lt;b style=&quot;&quot;&gt;&lt;font style=&quot;&quot;&gt;&lt;font style=&quot;font-size: 24px;&quot;&gt;A2&lt;/font&gt;&lt;br&gt;w21,w22&lt;br&gt;w23,b2&lt;br&gt;&lt;/font&gt;&lt;/b&gt;" style="rounded=0;whiteSpace=wrap;html=1;" vertex="1" parent="1">
          <mxGeometry x="280" y="130" width="80" height="60" as="geometry" />
        </mxCell>
        <mxCell id="3pxdmZEAAchQAIaSr5aw-5" value="&lt;b&gt;&lt;font style=&quot;&quot;&gt;&lt;span style=&quot;font-size: 24px;&quot;&gt;A1&lt;/span&gt;&lt;br&gt;&lt;font style=&quot;font-size: 12px;&quot;&gt;w11,w12,&lt;br&gt;w13,b1&lt;/font&gt;&lt;br&gt;&lt;/font&gt;&lt;/b&gt;" style="rounded=0;whiteSpace=wrap;html=1;" vertex="1" parent="1">
          <mxGeometry x="120" y="130" width="80" height="60" as="geometry" />
        </mxCell>
        <mxCell id="3pxdmZEAAchQAIaSr5aw-6" value="&lt;span style=&quot;&quot;&gt;&lt;b&gt;&lt;font style=&quot;font-size: 24px;&quot;&gt;A3&lt;/font&gt;&lt;br&gt;w31,w32,&lt;br&gt;b3&lt;br&gt;&lt;/b&gt;&lt;/span&gt;" style="rounded=0;whiteSpace=wrap;html=1;" vertex="1" parent="1">
          <mxGeometry x="200" y="240" width="80" height="60" as="geometry" />
        </mxCell>
        <mxCell id="3pxdmZEAAchQAIaSr5aw-14" value="" style="endArrow=classic;html=1;rounded=0;fontSize=24;exitX=0.5;exitY=1;exitDx=0;exitDy=0;entryX=0.425;entryY=0.033;entryDx=0;entryDy=0;entryPerimeter=0;" edge="1" parent="1" source="3pxdmZEAAchQAIaSr5aw-1" target="3pxdmZEAAchQAIaSr5aw-5">
          <mxGeometry width="50" height="50" relative="1" as="geometry">
            <mxPoint x="400" y="430" as="sourcePoint" />
            <mxPoint x="450" y="380" as="targetPoint" />
          </mxGeometry>
        </mxCell>
        <mxCell id="3pxdmZEAAchQAIaSr5aw-15" value="" style="endArrow=classic;html=1;rounded=0;fontSize=24;exitX=0.5;exitY=1;exitDx=0;exitDy=0;entryX=0.5;entryY=0;entryDx=0;entryDy=0;" edge="1" parent="1" source="3pxdmZEAAchQAIaSr5aw-2" target="3pxdmZEAAchQAIaSr5aw-5">
          <mxGeometry width="50" height="50" relative="1" as="geometry">
            <mxPoint x="90" y="100" as="sourcePoint" />
            <mxPoint x="164" y="141.98000000000002" as="targetPoint" />
          </mxGeometry>
        </mxCell>
        <mxCell id="3pxdmZEAAchQAIaSr5aw-16" value="" style="endArrow=classic;html=1;rounded=0;fontSize=24;exitX=0.5;exitY=1;exitDx=0;exitDy=0;entryX=0.5;entryY=0;entryDx=0;entryDy=0;" edge="1" parent="1" source="3pxdmZEAAchQAIaSr5aw-3" target="3pxdmZEAAchQAIaSr5aw-5">
          <mxGeometry width="50" height="50" relative="1" as="geometry">
            <mxPoint x="250" y="100" as="sourcePoint" />
            <mxPoint x="170" y="140" as="targetPoint" />
          </mxGeometry>
        </mxCell>
        <mxCell id="3pxdmZEAAchQAIaSr5aw-17" value="" style="endArrow=classic;html=1;rounded=0;fontSize=24;entryX=0.5;entryY=0;entryDx=0;entryDy=0;" edge="1" parent="1" target="3pxdmZEAAchQAIaSr5aw-4">
          <mxGeometry width="50" height="50" relative="1" as="geometry">
            <mxPoint x="400" y="90" as="sourcePoint" />
            <mxPoint x="170" y="140" as="targetPoint" />
          </mxGeometry>
        </mxCell>
        <mxCell id="3pxdmZEAAchQAIaSr5aw-18" value="" style="endArrow=classic;html=1;rounded=0;fontSize=24;entryX=0.5;entryY=0;entryDx=0;entryDy=0;exitX=0.5;exitY=1;exitDx=0;exitDy=0;" edge="1" parent="1" source="3pxdmZEAAchQAIaSr5aw-2" target="3pxdmZEAAchQAIaSr5aw-4">
          <mxGeometry width="50" height="50" relative="1" as="geometry">
            <mxPoint x="410" y="100" as="sourcePoint" />
            <mxPoint x="330" y="140" as="targetPoint" />
          </mxGeometry>
        </mxCell>
        <mxCell id="3pxdmZEAAchQAIaSr5aw-19" value="" style="endArrow=classic;html=1;rounded=0;fontSize=24;exitX=0.5;exitY=1;exitDx=0;exitDy=0;" edge="1" parent="1" source="3pxdmZEAAchQAIaSr5aw-1">
          <mxGeometry width="50" height="50" relative="1" as="geometry">
            <mxPoint x="250" y="100" as="sourcePoint" />
            <mxPoint x="320" y="130" as="targetPoint" />
          </mxGeometry>
        </mxCell>
        <mxCell id="3pxdmZEAAchQAIaSr5aw-20" value="" style="endArrow=classic;html=1;rounded=0;fontSize=24;exitX=0.5;exitY=1;exitDx=0;exitDy=0;entryX=0.5;entryY=0;entryDx=0;entryDy=0;" edge="1" parent="1" source="3pxdmZEAAchQAIaSr5aw-5" target="3pxdmZEAAchQAIaSr5aw-6">
          <mxGeometry width="50" height="50" relative="1" as="geometry">
            <mxPoint x="90" y="100" as="sourcePoint" />
            <mxPoint x="330" y="140" as="targetPoint" />
          </mxGeometry>
        </mxCell>
        <mxCell id="3pxdmZEAAchQAIaSr5aw-21" value="" style="endArrow=classic;html=1;rounded=0;fontSize=24;exitX=0.5;exitY=1;exitDx=0;exitDy=0;entryX=0.5;entryY=0;entryDx=0;entryDy=0;" edge="1" parent="1" source="3pxdmZEAAchQAIaSr5aw-4">
          <mxGeometry width="50" height="50" relative="1" as="geometry">
            <mxPoint x="170" y="200" as="sourcePoint" />
            <mxPoint x="250" y="250" as="targetPoint" />
          </mxGeometry>
        </mxCell>
      </root>
    </mxGraphModel>
  </diagram>
</mxfile>
